<svg xmlns="http://www.w3.org/2000/svg" xmlns:xlink="http://www.w3.org/1999/xlink" viewBox="0 0 136.03 109.1"><defs><style>.cls-1{fill:url(#linear-gradient);}.cls-2{fill:url(#linear-gradient-2);}.cls-3{fill:#c6daf1;}.cls-4{fill:#f1cbdb;}.cls-5{fill:#30343d;}</style><linearGradient id="linear-gradient" x1="2067.04" y1="-1231.75" x2="2145.86" y2="-1231.75" gradientTransform="translate(2160.92 -1192.34) rotate(180)" gradientUnits="userSpaceOnUse"><stop offset="0" stop-color="#83cdb7"/><stop offset="0.36" stop-color="#afd6dd"/><stop offset="0.59" stop-color="#c6daf1"/></linearGradient><linearGradient id="linear-gradient-2" x1="2043.97" y1="-1235.88" x2="2085.9" y2="-1260.09" gradientTransform="translate(2160.92 -1192.34) rotate(180)" gradientUnits="userSpaceOnUse"><stop offset="0.1" stop-color="#f1cbdb"/><stop offset="1" stop-color="#fed206"/></linearGradient></defs><g id="Layer_2" data-name="Layer 2"><g id="TXT"><path class="cls-1" d="M41.17,78.82a11.63,11.63,0,0,1-8.28-3.43L18.49,61a11.71,11.71,0,0,1,0-16.56l41-41a11.72,11.72,0,0,1,16.57,0l14.4,14.4a11.72,11.72,0,0,1,0,16.57l-41,41A11.63,11.63,0,0,1,41.17,78.82ZM67.76,3.71a8,8,0,0,0-5.65,2.35l-41,41a8,8,0,0,0,0,11.3L35.52,72.77a8,8,0,0,0,11.3,0l41-41a8,8,0,0,0,0-11.31L73.42,6.06A8,8,0,0,0,67.76,3.71Z"/><path class="cls-2" d="M94.3,78.82A11.63,11.63,0,0,1,86,75.39L70.41,59.78,73,57.16,88.65,72.77a8,8,0,0,0,11.31,0l14.4-14.41a8,8,0,0,0,0-11.3L98.55,31.25l2.63-2.63L117,44.43A11.71,11.71,0,0,1,117,61l-14.41,14.4A11.59,11.59,0,0,1,94.3,78.82Z"/><path class="cls-3" d="M70,9.56h0a3.45,3.45,0,0,1,0,4.87l-6.29,6.3a3.46,3.46,0,0,1-4.88,0h0a3.45,3.45,0,0,1,0-4.87l6.3-6.3A3.45,3.45,0,0,1,70,9.56Z"/><path class="cls-4" d="M111.47,50.17h0a3.45,3.45,0,0,1,0,4.87l-6.3,6.3a3.46,3.46,0,0,1-4.88,0h0a3.45,3.45,0,0,1,0-4.87l6.3-6.3A3.46,3.46,0,0,1,111.47,50.17Z"/><path class="cls-5" d="M5.9,109.1a13.48,13.48,0,0,1-2.59-.2,4.17,4.17,0,0,1-1.71-.68,3,3,0,0,1-1-1.3,7.42,7.42,0,0,1-.47-2.11,36.43,36.43,0,0,1,0-6.15,7.27,7.27,0,0,1,.47-2.1,3,3,0,0,1,1-1.31,4.17,4.17,0,0,1,1.71-.68,14.34,14.34,0,0,1,2.59-.2c.41,0,.82,0,1.25,0s.83.07,1.22.12a8.35,8.35,0,0,1,1,.18v1.88l-1-.12-1-.07-.83,0c-.77,0-1.4,0-1.91.08a2.88,2.88,0,0,0-1.2.38,1.8,1.8,0,0,0-.67.87,5.56,5.56,0,0,0-.29,1.56c0,.65-.08,1.48-.08,2.47s0,1.79.08,2.46a5.56,5.56,0,0,0,.29,1.56,1.71,1.71,0,0,0,.67.87,2.74,2.74,0,0,0,1.2.38,17,17,0,0,0,1.91.08c.46,0,1,0,1.51-.06s1-.09,1.44-.15v1.93c-.31.06-.67.1-1.08.15l-1.26.1C6.7,109.09,6.29,109.1,5.9,109.1Z"/><path class="cls-5" d="M25.09,109.1a15.77,15.77,0,0,1-2.83-.2,4.08,4.08,0,0,1-1.75-.68,2.71,2.71,0,0,1-1-1.31,8.1,8.1,0,0,1-.37-2.11q-.09-1.26-.09-3.06c0-1.2,0-2.22.09-3.07a8.1,8.1,0,0,1,.37-2.1,2.69,2.69,0,0,1,1-1.32,4.08,4.08,0,0,1,1.75-.68,16.76,16.76,0,0,1,2.83-.2,16.84,16.84,0,0,1,2.83.2,4.12,4.12,0,0,1,1.77.68,2.76,2.76,0,0,1,.95,1.32,7.28,7.28,0,0,1,.39,2.1c.06.85.08,1.87.08,3.07s0,2.22-.08,3.06a7.29,7.29,0,0,1-.39,2.11,2.78,2.78,0,0,1-.95,1.31,4.12,4.12,0,0,1-1.77.68A15.85,15.85,0,0,1,25.09,109.1Zm0-2c.7,0,1.27,0,1.72-.06a2.43,2.43,0,0,0,1.07-.31,1.54,1.54,0,0,0,.58-.83,6.84,6.84,0,0,0,.24-1.57c0-.66.05-1.52.05-2.58s0-1.92-.05-2.59a6.94,6.94,0,0,0-.24-1.57,1.48,1.48,0,0,0-.58-.82,2.42,2.42,0,0,0-1.07-.32c-.45,0-1-.06-1.72-.06s-1.25,0-1.7.06a2.46,2.46,0,0,0-1.06.32,1.39,1.39,0,0,0-.58.82,7,7,0,0,0-.23,1.57c0,.67-.05,1.53-.05,2.59s0,1.92.05,2.58a6.92,6.92,0,0,0,.23,1.57,1.45,1.45,0,0,0,.58.83,2.46,2.46,0,0,0,1.06.31C23.84,107.07,24.4,107.09,25.09,107.09Z"/><path class="cls-5" d="M44.84,108.93l-4.9-14.39h2.45l4,11.8h.1l4-11.8h2.38l-4.89,14.39Z"/><path class="cls-5" d="M62.38,108.93V94.54H72v2H64.74v4.12H71v2H64.74v4.25H72v2Z"/><path class="cls-5" d="M82.17,108.93V94.54h6.72a6.32,6.32,0,0,1,2.19.31,2.65,2.65,0,0,1,1.26.91,3.38,3.38,0,0,1,.56,1.43A10.11,10.11,0,0,1,93.05,99a8.82,8.82,0,0,1-.14,1.55,3.92,3.92,0,0,1-.58,1.55,2.53,2.53,0,0,1-1.41,1l2.36,5.81H90.77l-2.3-5.87.6.31a.86.86,0,0,1-.34.07h-4.2v5.48Zm2.36-7.49h3.35a7,7,0,0,0,1.55-.13,1.66,1.66,0,0,0,.84-.43,1.44,1.44,0,0,0,.34-.75A7.2,7.2,0,0,0,90.69,99a7.67,7.67,0,0,0-.08-1.17,1.43,1.43,0,0,0-.32-.75,1.55,1.55,0,0,0-.81-.41A7.45,7.45,0,0,0,88,96.55H84.53Z"/><path class="cls-5" d="M109,109.1a14,14,0,0,1-2.47-.18,3.71,3.71,0,0,1-1.57-.59,2.67,2.67,0,0,1-.9-1.15,5.9,5.9,0,0,1-.41-1.83c-.06-.74-.09-1.62-.09-2.65V94.54h1.34v8.83a18,18,0,0,0,.11,2.29,2.91,2.91,0,0,0,.49,1.38,2,2,0,0,0,1.22.68,10.45,10.45,0,0,0,2.28.19,10.31,10.31,0,0,0,2.26-.19,2,2,0,0,0,1.2-.68,2.62,2.62,0,0,0,.48-1.38c.06-.59.09-1.36.09-2.29V94.54h1.34v8.16c0,1,0,1.91-.08,2.65a5.93,5.93,0,0,1-.39,1.83,2.58,2.58,0,0,1-.89,1.15,3.71,3.71,0,0,1-1.57.59A13.83,13.83,0,0,1,109,109.1Z"/><path class="cls-5" d="M125.8,108.93V94.54H132a5.79,5.79,0,0,1,2.21.34,2.59,2.59,0,0,1,1.19,1,3.6,3.6,0,0,1,.51,1.41A10.44,10.44,0,0,1,136,99a11.59,11.59,0,0,1-.12,1.69,3.36,3.36,0,0,1-.52,1.43,2.69,2.69,0,0,1-1.22,1,5.78,5.78,0,0,1-2.2.35h-4.83v5.48Zm1.34-6.67h4.47a5.43,5.43,0,0,0,1.7-.21,1.81,1.81,0,0,0,.91-.62,2.23,2.23,0,0,0,.39-1,11.74,11.74,0,0,0,.08-1.42c0-.55,0-1-.07-1.44a2.11,2.11,0,0,0-.37-1,1.75,1.75,0,0,0-.91-.61,5.87,5.87,0,0,0-1.71-.2h-4.49Z"/></g></g></svg>