<svg xmlns="http://www.w3.org/2000/svg" viewBox="0 0 62.44 92.95"><defs><style>.cls-1{fill:#dbdedf;}</style></defs><g id="Layer_2" data-name="Layer 2"><g id="Screen_1_w_chat" data-name="Screen 1 w chat"><path class="cls-1" d="M48.54,85.58a3.32,3.32,0,0,0-3.9-1.73A13.23,13.23,0,0,0,35,79.66a13,13,0,0,0-3.81.56,9.77,9.77,0,0,0-12.6.55,12.18,12.18,0,0,0-9.41,4.89A7,7,0,0,0,8,85.56,7.39,7.39,0,0,0,.63,93H53.2a5.35,5.35,0,0,0-4.66-7.37Z"/><path class="cls-1" d="M61.8,0S53.73,8.19,38,14.19c-16.29,6.46-15.94,21.7-9,34.1C30.37,39.61,38.76,29.05,46.89,24a.36.36,0,0,1,.48.15.38.38,0,0,1-.12.47,24.89,24.89,0,0,0-3.77,3.13,44.67,44.67,0,0,0-6.56,8.5,64.57,64.57,0,0,0-4.79,9.58c-.56,1.37-.92,2.42-1.21,3.27-.07.22-.11.34-.17.51h0A90,90,0,0,0,26.63,66,28.93,28.93,0,0,0,23,57.83l-.1-.17c-.26-.47-.57-1-1-1.78a37.55,37.55,0,0,0-3.75-5.07,25.93,25.93,0,0,0-4.67-4.27,14.07,14.07,0,0,0-2.5-1.44.22.22,0,0,1-.12-.26.21.21,0,0,1,.26-.14C16.31,46.8,22.25,52.08,23.9,57A19.2,19.2,0,0,0,25,53.06a12.64,12.64,0,0,0-9.78-15C5.51,36.21,0,32.27,0,32.27s1,16,6.5,23.3a11.59,11.59,0,0,0,15.34,3.22c2.36,4,3.89,6.83,4.23,14.7,0,1.42,0,2.86,0,4.37a9.26,9.26,0,0,1,1.49.24q0-.55,0-1.08h.05c0-1.31,0-2.5-.07-3.59.14-6.92,1.25-13.25,4.54-23.12a19.64,19.64,0,0,0,25.65-9.45C64.8,27,61.8,0,61.8,0Z"/></g></g></svg>