<svg xmlns="http://www.w3.org/2000/svg" viewBox="0 0 2036.21 63.42"><defs><style>.cls-1{fill:#30343d;opacity:0.5;}</style></defs><g id="Layer_2" data-name="Layer 2"><g id="_Layer_" data-name="&lt;Layer&gt;"><path class="cls-1" d="M2031.68,24.92v31.7a6.81,6.81,0,0,1-6.8,6.8h-31.71a6.8,6.8,0,0,1-6.79-6.8V24.92a2.27,2.27,0,1,1,4.53,0v31.7a2.27,2.27,0,0,0,2.26,2.27h31.71a2.27,2.27,0,0,0,2.27-2.27V24.92a2.27,2.27,0,1,1,4.53,0Zm2.26-11.33h-49.83a2.27,2.27,0,0,0,0,4.53h49.83a2.27,2.27,0,1,0,0-4.53Zm-34-4.53a2.26,2.26,0,0,0,2.26-2.26,2.27,2.27,0,0,1,2.27-2.27h9.06a2.27,2.27,0,0,1,2.26,2.27,2.27,2.27,0,0,0,4.53,0,6.8,6.8,0,0,0-6.79-6.8h-9.06a6.81,6.81,0,0,0-6.8,6.8A2.27,2.27,0,0,0,2000,9.06Zm18.12,43V24.92a2.27,2.27,0,1,0-4.53,0V52.09a2.27,2.27,0,1,0,4.53,0Zm-13.59,0V24.92a2.27,2.27,0,1,0-4.53,0V52.09a2.27,2.27,0,1,0,4.53,0Z"/></g><g id="Ikon"><path class="cls-1" d="M30.26,7,4.64,32.65A15.85,15.85,0,0,0,27.06,55.07L43.27,38.86a2.27,2.27,0,1,0-3.2-3.21L23.85,51.87a11.32,11.32,0,0,1-16-16L33.46,10.22a6.8,6.8,0,0,1,9.61,9.62L20.65,42.26a2.31,2.31,0,0,1-3.2,0,2.28,2.28,0,0,1,0-3.21L36.67,19.84a2.27,2.27,0,0,0-3.21-3.21L14.25,35.85a6.81,6.81,0,0,0,0,9.61,7,7,0,0,0,9.61,0L46.28,23a11.33,11.33,0,0,0-16-16Z"/></g></g></svg>