<svg xmlns="http://www.w3.org/2000/svg" viewBox="0 0 1091.14 126.94"><defs><style>.email-top-1{fill:#00c0f3;}.email-top-2,.email-top-6{fill:#fff;}.email-top-3{fill:#f5f5f5;}.email-top-4{fill:#adadad;}.email-top-5{fill:#e0e0e0;}.email-top-6{font-size:29.05px;font-family:Corbel;}</style></defs><g id="Layer_2" data-name="Layer 2"><g id="Overlayer_e-mail" data-name="Overlayer e-mail"><path class="email-top-1" d="M18,0H1073.13a18,18,0,0,1,18,18V58.6a0,0,0,0,1,0,0H0a0,0,0,0,1,0,0V18A18,18,0,0,1,18,0Z"/><path class="email-top-2" d="M1011.19,29.3a5.37,5.37,0,1,1-5.37-5.37A5.37,5.37,0,0,1,1011.19,29.3Z"/><path class="email-top-2" d="M1037.71,29.3a5.37,5.37,0,1,1-5.37-5.37A5.37,5.37,0,0,1,1037.71,29.3Z"/><path class="email-top-2" d="M1064.13,28.25a5.37,5.37,0,1,1-4.22-4.22A5.38,5.38,0,0,1,1064.13,28.25Z"/><rect class="email-top-3" y="58.59" width="1091.14" height="68.34"/><path class="email-top-4" d="M1060.42,85.94h-18.69a1,1,0,1,1,0-1.93h18.69a1,1,0,0,1,0,1.93Z"/><path class="email-top-4" d="M1060.42,93.73h-18.69a1,1,0,1,1,0-1.93h18.69a1,1,0,0,1,0,1.93Z"/><path class="email-top-4" d="M1060.42,101.53h-18.69a1,1,0,0,1,0-1.94h18.69a1,1,0,0,1,0,1.94Z"/><path class="email-top-4" d="M62.11,102.06a1.05,1.05,0,0,1-.77-.32,1.1,1.1,0,0,1,0-1.54L67.56,94l-6.22-6.22a1.1,1.1,0,0,1,0-1.54,1.08,1.08,0,0,1,1.54,0L70.64,94l-7.76,7.75A1.05,1.05,0,0,1,62.11,102.06Z"/><path class="email-top-4" d="M69.1,95.07H51.82a1.09,1.09,0,0,1,0-2.17H69.1a1.09,1.09,0,1,1,0,2.17Z"/><path class="email-top-4" d="M27.6,102.06a1.07,1.07,0,0,1-.77-.32L19.08,94l7.75-7.76a1.09,1.09,0,1,1,1.54,1.54L22.15,94l6.22,6.21a1.08,1.08,0,0,1,0,1.54A1.05,1.05,0,0,1,27.6,102.06Z"/><path class="email-top-4" d="M37.89,95.07H20.62a1.09,1.09,0,1,1,0-2.17H37.89a1.09,1.09,0,1,1,0,2.17Z"/><path class="email-top-4" d="M97.66,103.06A9.08,9.08,0,1,1,106.74,94a1.09,1.09,0,0,1-2.18,0,6.9,6.9,0,1,0-6.9,6.89,7,7,0,0,0,2.36-.41,1.09,1.09,0,0,1,.74,2A9,9,0,0,1,97.66,103.06Z"/><path class="email-top-4" d="M108.27,94l-2.48,3.52a.17.17,0,0,1-.28,0L103,94a.18.18,0,0,1,.15-.27h5A.17.17,0,0,1,108.27,94Z"/><path class="email-top-2" d="M994.82,108.72H154a16,16,0,0,1-16-16h0a16,16,0,0,1,16-16H994.82a16,16,0,0,1,16,16h0A16,16,0,0,1,994.82,108.72Z"/><path class="email-top-5" d="M996.86,101.47l-5.69-3-5.69,3,1.09-6.33L982,90.65l6.36-.93L991.17,84,994,89.72l6.36.93-4.6,4.49Zm-5.69-4.75,3.62,1.91-.69-4L997,91.73l-4-.58-1.81-3.67-1.81,3.67-4.05.58,2.93,2.86-.69,4Z"/><text class="email-top-6" transform="translate(96.7 40.2)">Ny email</text><path class="email-top-2" d="M59,30.88,42.16,18.74a3,3,0,0,1,.8-.11H73.79a2.87,2.87,0,0,1,1.58.47ZM76.53,20.7,59.05,33.32l0,0,0,0L41.79,20.92,40.52,20l-.1-.08H27a1.29,1.29,0,0,0-1.28,1.28v.54A1.28,1.28,0,0,0,27,23H41.59a1.29,1.29,0,0,1,1.28,1.28v.55a1.28,1.28,0,0,1-1.28,1.27H35.72a1.28,1.28,0,0,0-1.27,1.28V28a1.28,1.28,0,0,0,1.27,1.28H47.08a1.28,1.28,0,0,1,1.28,1.28v.54a1.28,1.28,0,0,1-1.28,1.28H30a1.28,1.28,0,0,0-1.28,1.28v.54A1.28,1.28,0,0,0,30,35.43h23.1a1.28,1.28,0,0,1,1.28,1.28v.54a1.29,1.29,0,0,1-1.28,1.28H35.28A1.28,1.28,0,0,0,34,39.81v.54a1.28,1.28,0,0,0,1.28,1.28H73.79a2.83,2.83,0,0,0,2.84-2.79V21.42A2.84,2.84,0,0,0,76.53,20.7Zm-53.27-.78a1.56,1.56,0,1,0,1.55,1.55A1.56,1.56,0,0,0,23.26,19.92Zm10.25,7.75A1.55,1.55,0,1,0,32,29.22,1.54,1.54,0,0,0,33.51,27.67Zm-7.25,4.66a1.55,1.55,0,1,0,1.55,1.55A1.55,1.55,0,0,0,26.26,32.33Zm5.26,6.2a1.55,1.55,0,1,0,1.55,1.55A1.54,1.54,0,0,0,31.52,38.53Z"/></g></g></svg>