<?xml version="1.0" encoding="UTF-8"?>
<svg width="2537px" height="136px" viewBox="0 0 2537 136" version="1.1" xmlns="http://www.w3.org/2000/svg" xmlns:xlink="http://www.w3.org/1999/xlink">
    <title>email_top</title>
    <g id="Page-1" stroke="none" stroke-width="1" fill="none" fill-rule="evenodd">
        <g id="email_top" fill-rule="nonzero">
            <g id="_Layer_" fill="#00C0F3">
                <path d="M45.3,0 L2491.5,0 C2516.5185,0 2536.8,20.2815008 2536.8,45.3 L2536.8,135.9 L0,135.9 L0,45.3 C0,20.2815008 20.2815008,0 45.3,0 Z" id="Path"></path>
            </g>
            <g id="TXT" transform="translate(58.640000, 43.799995)" fill="#FFFFFF">
                <path d="M89.3,29.3500053 L48.94,0.280005298 C49.5665981,0.0946971285 50.2165751,0.00039993936 50.87,2.64326841e-06 L124.67,2.64326841e-06 C126.017983,-0.00118128526 127.336353,0.395373511 128.46,1.1400053 L89.3,29.3500053 Z M131.24,4.9700053 L89.36,35.2000053 L89.28,35.2600053 L89.18,35.1800053 L48.07,5.4900053 L45.07,3.2900053 L44.84,3.1100053 L12.71,3.1100053 C11.8940428,3.11264581 11.1127041,3.44000696 10.5385535,4.01978646 C9.96440295,4.59956596 9.64468002,5.38406115 9.64993466,6.2000053 L9.64993466,7.5000053 C9.65548854,9.18771798 11.0222873,10.5545168 12.71,10.5600053 L47.59,10.5600053 C49.2777127,10.5654938 50.6445115,11.9322926 50.65,13.6200053 L50.65,14.9200053 C50.6445115,16.607718 49.2777127,17.9745168 47.59,17.9800053 L33.59,17.9800053 C31.8967645,17.9854939 30.5254887,19.3567698 30.52,21.0500053 L30.52,22.3400053 C30.5254887,24.0332408 31.8967645,25.4045166 33.59,25.4100053 L60.78,25.4100053 C62.4677127,25.4154938 63.8345115,26.7822926 63.84,28.4700053 L63.84,29.7700053 C63.8345115,31.457718 62.4677127,32.8245168 60.78,32.8300053 L19.91,32.8300053 C18.2183834,32.8299963 16.8455102,34.1983977 16.84,35.8900053 L16.84,37.2000053 C16.878045,38.868121 18.2414505,40.2004391 19.91,40.2000053 L75.21,40.2000053 C76.9016076,40.2055155 78.270009,41.5783887 78.27,43.2700053 L78.27,44.5600053 C78.270009,46.2516219 76.9016076,47.6244951 75.21,47.6300053 L32.47,47.6300053 C31.6462113,47.6219765 30.8535415,47.944304 30.2691311,48.5249561 C29.6847208,49.1056081 29.3572861,49.896182 29.36,50.7200053 L29.36,52.0100053 C29.3655102,53.7016129 30.7383834,55.0701977 32.43,55.0701977 L124.63,55.0701977 C128.351888,55.0977942 131.396057,52.1117372 131.440926,48.3900053 L131.440926,6.6900053 C131.449746,6.11034744 131.382491,5.53196118 131.24,4.9700053 L131.24,4.9700053 Z M3.71,3.1100053 C1.66102358,3.1100053 0,4.77102888 0,6.8200053 C0,8.86898172 1.66102358,10.5300053 3.71,10.5300053 C5.75897642,10.5300053 7.42,8.86898172 7.42,6.8200053 C7.41450548,4.7733091 5.7566962,3.11549981 3.71,3.1100053 L3.71,3.1100053 Z M28.2500135,21.6400053 C28.2500135,20.1344969 27.3425598,18.7774216 25.951263,18.2022271 C24.5599662,17.6270326 22.9591463,17.9471372 21.8960249,19.0131242 C20.8329034,20.0791112 20.5171091,21.6807869 21.0960465,23.0705304 C21.674984,24.4602739 23.034497,25.3640524 24.54,25.3600188 C25.5256882,25.3600188 26.4708599,24.9677626 27.166908,24.2698383 C27.8629562,23.571914 28.2526568,22.62569 28.2500135,21.6400053 L28.2500135,21.6400053 Z M10.89,32.7999918 C9.3835881,32.7959612 8.02344405,33.7008245 7.44509549,35.0917976 C6.86674694,36.4827707 7.18437827,38.0852312 8.24957618,39.1504291 C9.31477409,40.215627 10.9172346,40.5332584 12.3082077,39.9549098 C13.6991808,39.3765612 14.6040441,38.0164172 14.6000135,36.5100053 C14.6000135,34.4610289 12.9389764,32.7999918 10.89,32.7999918 L10.89,32.7999918 Z M23.47,47.6499918 C21.4223344,47.6555246 19.7663289,49.3189843 19.7699999,51.366654 C19.7736831,53.4143237 21.4356521,55.0718252 23.4833244,55.0699919 C25.5309966,55.0681555 27.19,53.4076783 27.19,51.3600053 C27.19,50.3743171 26.7977573,49.4291454 26.099833,48.7330973 C25.4019087,48.0370491 24.4556847,47.6473485 23.47,47.6499918 L23.47,47.6499918 Z" id="Shape"></path>
            </g>
        </g>
    </g>
</svg>