<svg xmlns="http://www.w3.org/2000/svg" viewBox="0 0 34.59 34.59"><defs><style>.cls-1{fill:#fff;}.cls-2{fill:#046961;}</style></defs><g id="Layer_2" data-name="Layer 2"><g id="Screen_1_w_chat" data-name="Screen 1 w chat"><rect class="cls-1" width="34.59" height="34.59" rx="7"/><path class="cls-2" d="M25.23,10.92a6.63,6.63,0,0,0-3.15.87l-.42-.49-.92,2.88,2.94-.54-.4-.47a4.24,4.24,0,0,1,1.58-.32,4.21,4.21,0,0,1,0,8.41c-2.53,0-4.63-2.52-5.45-3.66a.93.93,0,0,1,0-1.08,13.72,13.72,0,0,1,1.45-1.68L19.52,13.5a21.11,21.11,0,0,0-2.21,1.87A22.2,22.2,0,0,0,15.1,13.5a8.51,8.51,0,0,0-5.49-2.58,6.14,6.14,0,1,0,2.17,11.86l.37.49,1.11-2.81-3,.34.29.38a3.84,3.84,0,0,1-.76.08,4.21,4.21,0,0,1,0-8.41c2.35,0,4.37,2.25,5.29,3.46a1.23,1.23,0,0,1,0,1.5,11.55,11.55,0,0,1-1.91,2l1.31,1.3.23-.19a22,22,0,0,0,2.57-2.13,20.75,20.75,0,0,0,4,3.05,7.19,7.19,0,0,0,3.92,1.31,6.14,6.14,0,0,0,0-12.27Z"/></g></g></svg>