<svg xmlns="http://www.w3.org/2000/svg" viewBox="0 0 66.76 93.77"><defs><style>.oil__cls-1{fill:#dbdedf;}</style></defs><g id="Layer_2" data-name="Layer 2"><g id="Screen_1_w_chat" data-name="Screen 1 w chat"><path class="oil__cls-1" d="M50.43,46.28S34.09,60.49,34.09,77.43a16.34,16.34,0,1,0,32.67,0C66.76,60.49,50.43,46.28,50.43,46.28ZM51,88.19a2,2,0,0,1-1.9,1.35,2.09,2.09,0,0,1-.69-.12,16.42,16.42,0,0,1-9.84-9.67,2,2,0,1,1,3.79-1.43,12.36,12.36,0,0,0,7.42,7.28A2,2,0,0,1,51,88.19Z"/><path class="oil__cls-1" d="M1.77,9.92h.59V29.64H52.27V9.92h.6a1.78,1.78,0,0,0,0-3.55H1.77a1.78,1.78,0,0,0,0,3.55Z"/><path class="oil__cls-1" d="M44.9,1.77A1.77,1.77,0,0,0,43.13,0H33.82a1.77,1.77,0,0,0-1.77,1.77V4H44.9Z"/><path class="oil__cls-1" d="M32,77.43c0-6.35,2.2-13.17,6.39-19.91H1.77a1.78,1.78,0,0,0,0,3.55h.59v22H1.77a1.77,1.77,0,1,0,0,3.54H34.43A18.33,18.33,0,0,1,32,77.43Z"/><path class="oil__cls-1" d="M39.65,55.51l.88-1.25A61.59,61.59,0,0,1,49,44.67l1.4-1.21,1.39,1.21.45.41V35.49h.6a1.77,1.77,0,1,0,0-3.54H1.77a1.77,1.77,0,1,0,0,3.54h.59v20Z"/></g></g></svg>