<svg xmlns="http://www.w3.org/2000/svg" viewBox="0 0 12.33 19.66"><defs><style>.cls-1{fill:#fff;}</style></defs><g id="Layer_2" data-name="Layer 2"><g id="Screen_1_w_chat_files_download" data-name="Screen 1 w chat files download"><path class="cls-1" d="M5.61.59A.81.81,0,0,0,4.56.05l-3,1.06a1.67,1.67,0,0,0-1,1.13c-.44,1.61-1.21,4.39.56,9.34C2.28,14.87,5.25,18,6.68,19.29a1.46,1.46,0,0,0,1.47.29l3.66-1.31a.79.79,0,0,0,.45-1.08l-1.62-2a1,1,0,0,0-1.19-.5L8,15.2a1.51,1.51,0,0,1-1.5-.26A12,12,0,0,1,3,10.51,12.29,12.29,0,0,1,2,6.14,1.39,1.39,0,0,1,3,5l2.3-.82A1,1,0,0,0,5.83,3Z"/></g></g></svg>