<svg xmlns="http://www.w3.org/2000/svg" viewBox="0 0 2536.8 135.9"><defs><style>.cls-1{fill:#f2f5fa;}.cls-2{fill:#30343d;opacity:0.5;}</style></defs><g id="Layer_2" data-name="Layer 2"><g id="_Layer_" data-name="&lt;Layer&gt;"><path class="cls-1" d="M0,0H2536.8a0,0,0,0,1,0,0V90.6a45.3,45.3,0,0,1-45.3,45.3H45.3A45.3,45.3,0,0,1,0,90.6V0A0,0,0,0,1,0,0Z"/><path class="cls-2" d="M2106.47,60.22V91.93a6.8,6.8,0,0,1-6.8,6.79H2068a6.8,6.8,0,0,1-6.79-6.79V60.22a2.27,2.27,0,1,1,4.53,0V91.93a2.26,2.26,0,0,0,2.26,2.26h31.71a2.27,2.27,0,0,0,2.27-2.26V60.22a2.27,2.27,0,1,1,4.53,0Zm2.26-11.33H2058.9a2.27,2.27,0,0,0,0,4.53h49.83a2.27,2.27,0,1,0,0-4.53Zm-34-4.53A2.26,2.26,0,0,0,2077,42.1a2.27,2.27,0,0,1,2.27-2.27h9.06a2.27,2.27,0,0,1,2.26,2.27,2.27,2.27,0,0,0,4.53,0,6.8,6.8,0,0,0-6.79-6.8h-9.06a6.81,6.81,0,0,0-6.8,6.8A2.26,2.26,0,0,0,2074.76,44.36Zm18.12,43V60.22a2.27,2.27,0,1,0-4.53,0V87.4a2.27,2.27,0,0,0,4.53,0Zm-13.59,0V60.22a2.27,2.27,0,1,0-4.53,0V87.4a2.27,2.27,0,0,0,4.53,0Z"/></g><g id="Ikon"><path class="cls-2" d="M105.05,42.32,79.42,68a15.86,15.86,0,0,0,22.43,22.42l16.21-16.21a2.27,2.27,0,1,0-3.2-3.21L98.64,87.17a11.32,11.32,0,0,1-16-16l25.62-25.62a6.8,6.8,0,1,1,9.61,9.61L95.44,77.56a2.31,2.31,0,0,1-3.2,0,2.25,2.25,0,0,1,0-3.2l19.21-19.22a2.26,2.26,0,0,0-3.2-3.2L89,71.15a6.8,6.8,0,0,0,0,9.61,7,7,0,0,0,9.61,0l22.43-22.42a11.33,11.33,0,1,0-16-16Z"/></g></g></svg>