<svg xmlns="http://www.w3.org/2000/svg" viewBox="0 0 250.97 44.76"><defs><style>.email-footer-icons-1{fill:#adadad;}.email-footer-icons-2{fill:#e0e0e0;}</style></defs><g id="Layer_2" data-name="Layer 2"><g id="Overlayer_e-mail" data-name="Overlayer e-mail"><path class="email-footer-icons-1" d="M122,8.3V36.46h28.16V8.3ZM149.1,35.44H123V9.33H149.1Z"/><polygon class="email-footer-icons-1" points="147.13 28.45 147.13 33.51 128.97 33.51 134.6 27.38 140.06 20.96 147.13 28.45"/><polygon class="email-footer-icons-1" points="137.57 30.01 137.57 33.51 124.95 33.51 124.95 31.18 130.49 23.73 134.6 27.38 137.57 30.01"/><path class="email-footer-icons-1" d="M92.5,36.62a6.69,6.69,0,0,1-6.68-6.69V13.37a5.23,5.23,0,1,1,10.45,0v15a3.73,3.73,0,1,1-7.46,0V15.88a.59.59,0,1,1,1.18,0V28.41a2.55,2.55,0,1,0,5.1,0v-15a4,4,0,1,0-8.09,0V29.93a5.5,5.5,0,0,0,5.5,5.51A5.51,5.51,0,0,0,98,29.93v-14a.59.59,0,0,1,.59-.59.6.6,0,0,1,.59.59V29.93A6.69,6.69,0,0,1,92.5,36.62Z"/><path class="email-footer-icons-1" d="M187.12,36.46A14.08,14.08,0,1,1,201.2,22.38,14.09,14.09,0,0,1,187.12,36.46Zm0-26.9a12.82,12.82,0,1,0,12.82,12.82A12.84,12.84,0,0,0,187.12,9.56Z"/><path class="email-footer-icons-1" d="M191.29,28.56a4.18,4.18,0,1,1-8.35,0Z"/><path class="email-footer-icons-1" d="M193.26,19.15a1.43,1.43,0,1,1-1.43-1.42A1.43,1.43,0,0,1,193.26,19.15Z"/><path class="email-footer-icons-1" d="M183.83,19.15a1.43,1.43,0,1,1-1.43-1.42A1.43,1.43,0,0,1,183.83,19.15Z"/><path class="email-footer-icons-1" d="M234.63,29.33a10.52,10.52,0,1,1,10.52-10.51A10.52,10.52,0,0,1,234.63,29.33Zm0-19.68a9.17,9.17,0,1,0,9.16,9.17A9.17,9.17,0,0,0,234.63,9.65Z"/><path class="email-footer-icons-1" d="M249.85,35.69a1.11,1.11,0,0,1-.79-.33l-8.05-8a1.14,1.14,0,0,1-.33-.8,1.13,1.13,0,0,1,1.12-1.12,1.15,1.15,0,0,1,.8.33l8,8a1.13,1.13,0,0,1-.79,1.92Z"/><path class="email-footer-icons-2" d="M34.64,44.76a1.22,1.22,0,0,1-1.22-1.21V1.22a1.22,1.22,0,1,1,2.44,0V43.55A1.22,1.22,0,0,1,34.64,44.76Z"/><path class="email-footer-icons-1" d="M13.1,18.64l-6,7.85a.66.66,0,0,1-1,0L.14,18.64a.66.66,0,0,1,.52-1.06H12.58A.66.66,0,0,1,13.1,18.64Z"/></g></g></svg>