<svg xmlns="http://www.w3.org/2000/svg" viewBox="0 0 2536.8 135.9"><defs><style>.cls-1__email-top{fill:#00c0f3;}.cls-2__email-top{fill:#fff;}</style></defs><g id="Layer_2" data-name="Layer 2"><g id="_Layer_" data-name="&lt;Layer&gt;"><path class="cls-1__email-top" d="M45.3,0H2491.5a45.3,45.3,0,0,1,45.3,45.3v90.6a0,0,0,0,1,0,0H0a0,0,0,0,1,0,0V45.3A45.3,45.3,0,0,1,45.3,0Z"/><path class="cls-2__email-top" d="M2440.34,68l23.32-23.31a2.27,2.27,0,1,0-3.21-3.21l-23.31,23.32-23.31-23.32a2.27,2.27,0,1,0-3.21,3.21L2433.94,68l-23.32,23.31a2.27,2.27,0,1,0,3.21,3.21l23.31-23.32,23.31,23.32a2.27,2.27,0,1,0,3.21-3.21Z"/><path class="cls-2__email-top" d="M2353.33,40.77H2333a2.27,2.27,0,1,0,0,4.53h14.92l-42.1,42.1V72.48a2.27,2.27,0,1,0-4.53,0V92.86a2.27,2.27,0,0,0,2.26,2.27h20.39a2.27,2.27,0,1,0,0-4.53H2309l42.1-42.1V63.42a2.27,2.27,0,0,0,4.53,0V43A2.27,2.27,0,0,0,2353.33,40.77Z"/><path class="cls-2__email-top" d="M2244.61,95.13h-49.83a2.27,2.27,0,0,0,0,4.53h49.83a2.27,2.27,0,1,0,0-4.53Z"/></g><g id="TXT"><path class="cls-2__email-top" d="M147.94,73.15,107.58,44.08a6.82,6.82,0,0,1,1.93-.28h73.8a6.85,6.85,0,0,1,3.79,1.14Zm41.94-24.38L148,79l-.08.06-.1-.08L106.71,49.29l-3-2.2-.23-.18H71.35A3.07,3.07,0,0,0,68.29,50v1.3a3.07,3.07,0,0,0,3.06,3.06h34.88a3.07,3.07,0,0,1,3.06,3.06v1.3a3.07,3.07,0,0,1-3.06,3.06h-14a3.08,3.08,0,0,0-3.07,3.07v1.29a3.08,3.08,0,0,0,3.07,3.07h27.19a3.07,3.07,0,0,1,3.06,3.06v1.3a3.07,3.07,0,0,1-3.06,3.06H78.55a3.07,3.07,0,0,0-3.07,3.06V81A3.07,3.07,0,0,0,78.55,84h55.3a3.07,3.07,0,0,1,3.06,3.07v1.29a3.07,3.07,0,0,1-3.06,3.07H91.11A3.08,3.08,0,0,0,88,94.52v1.29a3.07,3.07,0,0,0,3.07,3.06h92.2a6.76,6.76,0,0,0,6.81-6.68V50.49A6.55,6.55,0,0,0,189.88,48.77ZM62.35,46.91a3.71,3.71,0,1,0,3.71,3.71A3.72,3.72,0,0,0,62.35,46.91ZM86.89,65.44a3.72,3.72,0,1,0-3.71,3.72A3.71,3.71,0,0,0,86.89,65.44ZM69.53,76.6a3.72,3.72,0,1,0,3.71,3.71A3.71,3.71,0,0,0,69.53,76.6ZM82.11,91.45a3.71,3.71,0,1,0,3.72,3.71A3.71,3.71,0,0,0,82.11,91.45Z"/></g></g></svg>