<svg id="LIFE" xmlns="http://www.w3.org/2000/svg" viewBox="0 0 841.89 595.28"><defs><style>.cls-1{fill:#DBDEDF;}</style></defs><polygon class="cls-1" points="281.86 425.48 294.37 370.85 174.59 370.85 227.15 141.88 163.34 141.88 98.27 425.48 281.86 425.48"/><polygon class="cls-1" points="305.26 322.79 348.81 141.87 285 141.87 241.45 322.79 305.26 322.79"/><polygon class="cls-1" points="400 425.48 426.69 309.54 496.38 309.54 508.89 254.9 439.21 254.9 452.56 196.51 546.82 196.51 559.33 141.88 401.26 141.88 336.19 425.48 400 425.48"/><polygon class="cls-1" points="679.87 425.48 692.38 370.85 602.29 370.85 616.47 309.12 679.1 309.12 691.61 254.9 628.98 254.9 642.33 196.51 732.42 196.51 744.93 141.88 591.03 141.88 525.97 425.48 679.87 425.48"/></svg>