<svg xmlns="http://www.w3.org/2000/svg" xmlns:xlink="http://www.w3.org/1999/xlink" viewBox="0 0 62.22 61.2"><defs><style>.cls-1{fill:none;}.cls-2{fill:#b3b2b3;}.cls-3{clip-path:url(#clip-path);}.cls-4{fill:#fff;}</style><clipPath id="clip-path"><rect id="SVGID" class="cls-1" width="62.22" height="61.2" rx="27.02"/></clipPath></defs><g id="Layer_2" data-name="Layer 2"><g id="Screen_1_w_chat_files_download" data-name="Screen 1 w chat files download"><rect class="cls-2" width="62.22" height="61.2" rx="27.02"/><g class="cls-3"><path class="cls-4" d="M50.18,42.29c-1.69-1.63-6.23-1.44-8.39-2.53-1.2-.6-3.28-2.4-4.78-3.44a15.13,15.13,0,0,0,5.88-12.38c0-8-5.36-14.4-12-14.4S19,16,19,23.94a15.2,15.2,0,0,0,5.68,12.23c-1.47,1.2-3.38,3.15-4.53,3.75-1.95,1-6.31.71-7.88,2.18C8.39,45.7,8.91,55.93,8.91,61.2H53.3C53.3,56.08,53.91,45.88,50.18,42.29Z"/></g></g></g></svg>