<svg xmlns="http://www.w3.org/2000/svg" viewBox="0 0 79.89 79.89"><defs><style>.cls-1{fill:#dbdedf;}</style></defs><g id="Layer_2" data-name="Layer 2"><g id="Screen_1_w_chat" data-name="Screen 1 w chat"><path class="cls-1" d="M11.65,20.72A34.42,34.42,0,0,1,20.16,12,34,34,0,0,1,34.41,6.18V0L52.17,10.25,34.41,20.5V15a25.12,25.12,0,0,0-9.24,4.09,25.66,25.66,0,0,0-8.52,10.3l-5-8.65Z"/><path class="cls-1" d="M20.72,68.24A34.26,34.26,0,0,1,6.18,45.48H0L10.25,27.73,20.5,45.48H15a25.57,25.57,0,0,0,14.4,17.76l-8.66,5Z"/><path class="cls-1" d="M68.24,59.17A34.33,34.33,0,0,1,45.48,73.72v6.17L27.73,69.64,45.48,59.39v5.52a25.32,25.32,0,0,0,9.66-4.39,25.65,25.65,0,0,0,8.11-10l5,8.64Z"/><path class="cls-1" d="M59.18,11.65a34.54,34.54,0,0,1,8.48,8.23,34.16,34.16,0,0,1,6.06,14.53h6.17L69.64,52.17,59.39,34.41h5.52A25.3,25.3,0,0,0,60.66,25a25.64,25.64,0,0,0-10.14-8.3l8.66-5Z"/></g></g></svg>