<svg id="svg" version="1.1" xmlns="http://www.w3.org/2000/svg" xmlns:xlink="http://www.w3.org/1999/xlink" width="400" height="396.5455199712127" viewBox="0, 0, 400,396.5455199712127"><g id="svgg"><path id="path0" d="M321.750 113.000 L 316.752 118.000 347.175 148.459 C 376.049 177.365,379.000 180.349,379.000 180.646 C 379.000 180.715,379.225 180.987,379.500 181.250 C 379.775 181.513,380.000 181.795,380.000 181.876 C 380.000 181.956,380.188 182.268,380.417 182.569 C 381.085 183.445,383.167 187.400,383.167 187.793 C 383.167 187.884,383.346 188.364,383.565 188.859 C 383.963 189.759,384.826 193.037,385.158 194.906 C 385.828 198.685,384.912 206.732,383.495 209.509 C 383.315 209.863,383.167 210.257,383.167 210.383 C 383.167 210.617,381.653 213.663,381.071 214.601 C 380.420 215.649,379.535 216.928,379.189 217.317 C 378.993 217.537,378.833 217.785,378.833 217.867 C 378.833 217.949,369.340 227.519,357.738 239.133 C 346.135 250.747,336.346 260.569,335.984 260.958 C 335.622 261.348,335.272 261.667,335.205 261.667 C 335.138 261.667,334.935 261.889,334.754 262.159 C 334.573 262.429,334.273 262.738,334.087 262.845 C 333.902 262.952,333.412 263.437,333.000 263.923 C 332.587 264.409,332.175 264.813,332.083 264.820 C 331.992 264.828,331.768 265.055,331.587 265.326 C 331.406 265.596,331.088 265.909,330.879 266.020 C 330.671 266.132,330.500 266.284,330.500 266.359 C 330.500 266.513,329.006 268.000,328.851 268.000 C 328.795 268.001,328.602 268.222,328.421 268.492 C 328.240 268.763,327.921 269.075,327.713 269.187 C 327.504 269.298,327.371 269.427,327.417 269.472 C 327.462 269.518,327.048 270.026,326.496 270.600 L 325.493 271.646 326.016 272.614 C 326.304 273.147,326.665 273.771,326.819 274.000 C 326.973 274.229,327.193 274.604,327.307 274.833 C 327.421 275.063,327.807 275.737,328.164 276.333 C 328.521 276.929,329.062 277.855,329.365 278.390 C 329.668 278.926,330.032 279.563,330.174 279.807 C 331.115 281.428,331.966 282.924,332.263 283.476 L 332.609 284.121 333.096 283.778 C 334.599 282.721,388.255 229.041,389.934 226.917 C 391.742 224.628,394.667 220.155,394.667 219.680 C 394.667 219.577,394.861 219.185,395.099 218.808 C 395.565 218.070,396.327 216.323,396.842 214.811 C 397.018 214.294,397.313 213.520,397.498 213.089 C 397.682 212.658,397.833 212.165,397.833 211.993 C 397.833 211.820,398.022 211.095,398.253 210.381 C 399.875 205.366,400.068 195.125,398.650 189.333 C 398.072 186.974,397.516 185.065,397.175 184.269 C 396.987 183.831,396.833 183.368,396.833 183.239 C 396.833 182.894,395.188 179.431,393.791 176.833 C 392.957 175.283,390.765 172.178,389.290 170.458 C 388.114 169.087,327.069 108.000,326.874 108.000 C 326.805 108.000,324.499 110.250,321.750 113.000 M353.333 185.908 C 351.855 186.340,350.573 186.873,349.867 187.349 C 349.473 187.615,349.063 187.833,348.957 187.833 C 348.701 187.833,322.271 214.294,321.978 214.844 C 321.853 215.079,321.563 215.566,321.333 215.926 C 320.919 216.577,320.847 216.741,320.193 218.513 C 319.110 221.451,319.830 227.132,321.575 229.420 C 321.809 229.727,322.000 230.041,322.000 230.119 C 322.000 230.377,324.319 232.682,325.161 233.262 C 329.626 236.333,335.748 236.341,340.285 233.281 C 341.460 232.488,367.333 206.714,367.333 206.336 C 367.333 206.209,367.478 205.950,367.654 205.761 C 368.267 205.102,369.188 202.687,369.429 201.105 C 370.531 193.868,366.694 187.841,359.750 185.903 C 358.662 185.600,354.378 185.603,353.333 185.908 " stroke="none" fill="#e7ccca" fill-rule="evenodd"></path><path id="path1" d="M12.917 351.769 C 12.642 351.808,12.079 351.920,11.667 352.017 C 11.254 352.115,10.523 352.260,10.041 352.339 C 6.435 352.931,3.385 355.879,1.685 360.417 C -0.676 366.713,-0.678 381.571,1.679 388.100 C 1.947 388.843,2.167 389.504,2.167 389.571 C 2.167 390.231,5.470 394.333,6.002 394.333 C 6.083 394.333,6.472 394.550,6.867 394.815 C 7.262 395.081,8.442 395.548,9.500 395.857 L 11.417 396.417 16.917 396.416 C 21.989 396.415,22.578 396.384,24.500 396.022 C 25.646 395.806,26.974 395.570,27.451 395.497 C 27.928 395.424,28.584 395.276,28.909 395.169 L 29.500 394.974 29.500 392.070 L 29.500 389.167 28.708 389.170 C 28.273 389.172,26.717 389.283,25.250 389.415 C 16.737 390.186,12.133 389.559,10.208 387.367 C 6.358 382.982,6.620 364.499,10.587 360.603 C 13.007 358.227,20.056 357.779,28.958 359.436 L 29.500 359.537 29.500 356.530 C 29.500 353.808,29.472 353.515,29.208 353.441 C 24.689 352.177,16.198 351.305,12.917 351.769 M77.000 351.767 C 76.771 351.809,75.646 351.996,74.500 352.183 C 73.319 352.376,72.029 352.698,71.522 352.928 C 71.029 353.151,70.556 353.333,70.471 353.333 C 70.220 353.333,68.307 354.663,67.616 355.317 C 65.627 357.201,63.793 361.205,63.333 364.667 C 62.575 370.373,62.456 378.242,63.071 381.917 C 63.209 382.742,63.324 383.654,63.327 383.944 C 63.355 386.430,66.379 392.648,67.881 393.308 C 67.953 393.339,68.232 393.550,68.501 393.777 C 72.396 397.054,85.762 397.599,91.008 394.694 C 94.131 392.966,96.456 389.761,97.167 386.207 C 97.254 385.772,97.479 384.704,97.667 383.833 C 98.302 380.894,98.494 370.728,97.992 366.667 C 97.671 364.072,97.109 361.861,96.082 359.157 C 95.492 357.603,92.905 354.333,92.266 354.333 C 92.178 354.333,91.943 354.182,91.746 353.996 C 91.240 353.521,88.650 352.497,87.527 352.329 C 87.008 352.252,86.208 352.104,85.750 352.001 C 84.918 351.814,77.790 351.624,77.000 351.767 M130.524 353.705 C 130.805 354.555,131.221 355.775,131.449 356.417 C 131.678 357.058,131.961 357.958,132.078 358.417 C 132.294 359.256,132.639 360.300,133.510 362.750 C 133.770 363.483,134.054 364.383,134.141 364.750 C 134.227 365.117,134.496 365.979,134.737 366.667 C 135.167 367.893,136.817 372.956,137.860 376.250 C 138.150 377.167,138.600 378.504,138.860 379.223 C 139.121 379.941,139.333 380.638,139.333 380.772 C 139.333 380.905,139.582 381.705,139.885 382.549 C 140.189 383.393,140.678 384.833,140.972 385.750 C 141.746 388.159,143.603 393.894,144.035 395.208 L 144.405 396.333 149.161 396.331 L 153.917 396.328 154.557 394.289 C 154.910 393.168,155.403 391.650,155.654 390.917 C 155.904 390.183,156.386 388.721,156.724 387.667 C 157.061 386.613,157.775 384.400,158.310 382.750 C 158.844 381.100,159.792 378.175,160.415 376.250 C 161.039 374.325,161.722 372.262,161.933 371.667 C 162.145 371.071,162.367 370.358,162.427 370.083 C 162.487 369.808,162.784 368.871,163.088 368.000 C 163.392 367.129,164.108 364.954,164.678 363.167 C 165.249 361.379,165.960 359.204,166.257 358.333 C 167.117 355.811,168.167 352.511,168.167 352.328 C 168.167 352.219,166.788 352.176,164.222 352.205 L 160.278 352.250 159.881 353.500 C 159.086 356.001,158.313 358.450,157.853 359.917 C 156.676 363.668,156.299 364.876,155.743 366.667 C 155.415 367.721,154.993 369.033,154.803 369.583 C 154.614 370.133,154.362 370.958,154.244 371.417 C 154.125 371.875,153.830 372.850,153.588 373.583 C 153.127 374.983,152.342 377.447,151.464 380.250 C 151.177 381.167,150.739 382.554,150.489 383.333 C 150.240 384.113,149.907 385.200,149.749 385.750 C 149.591 386.300,149.367 386.933,149.251 387.157 L 149.041 387.564 148.928 386.990 C 148.866 386.675,148.605 385.779,148.349 385.000 C 148.092 384.221,147.599 382.683,147.253 381.583 C 146.907 380.483,146.421 378.946,146.172 378.167 C 145.923 377.387,145.475 375.962,145.178 375.000 C 144.880 374.037,144.373 372.425,144.050 371.417 C 143.492 369.672,143.141 368.548,141.969 364.750 C 141.686 363.833,141.215 362.333,140.924 361.417 C 139.901 358.204,138.447 353.568,138.204 352.750 L 138.056 352.250 134.034 352.205 L 130.012 352.161 130.524 353.705 M207.250 352.331 C 203.873 352.828,201.027 355.894,200.635 359.458 C 200.551 360.214,200.506 367.485,200.533 375.624 L 200.583 390.417 201.231 391.750 C 202.328 394.008,203.554 395.075,206.022 395.921 C 208.208 396.671,217.871 396.679,226.667 395.939 L 228.917 395.750 228.962 392.542 L 229.007 389.333 220.379 389.323 C 209.660 389.311,209.704 389.318,208.564 387.512 L 208.083 386.750 208.030 382.233 L 207.977 377.717 209.013 377.608 C 209.583 377.549,212.194 377.500,214.816 377.500 C 217.438 377.499,221.102 377.450,222.958 377.390 L 226.333 377.280 226.333 374.322 L 226.333 371.363 224.958 371.270 C 223.750 371.188,210.271 370.826,208.625 370.831 L 208.000 370.833 208.000 366.495 C 208.000 358.845,207.470 359.167,220.090 359.167 L 229.000 359.167 229.000 355.940 L 229.000 352.714 227.958 352.600 C 224.980 352.272,209.053 352.065,207.250 352.331 M264.333 374.239 L 264.333 396.333 268.167 396.333 L 272.000 396.333 272.000 387.731 L 272.000 379.128 272.375 379.228 C 272.581 379.284,274.460 379.330,276.551 379.331 L 280.352 379.333 280.682 380.125 C 280.864 380.560,281.118 381.142,281.247 381.417 C 281.376 381.692,281.830 382.704,282.256 383.667 C 282.683 384.629,283.240 385.867,283.494 386.417 C 283.747 386.967,284.456 388.542,285.069 389.917 C 285.682 391.292,286.324 392.717,286.496 393.083 C 286.669 393.450,287.072 394.331,287.394 395.042 L 287.978 396.333 291.739 396.333 C 296.227 396.333,295.961 396.625,294.417 393.398 C 293.821 392.153,293.333 391.107,293.333 391.073 C 293.333 391.005,291.612 387.363,290.738 385.583 C 290.423 384.942,289.837 383.704,289.435 382.833 C 289.033 381.962,288.396 380.598,288.019 379.802 C 287.642 379.005,287.333 378.321,287.333 378.283 C 287.333 378.244,287.802 378.006,288.375 377.754 C 290.021 377.031,292.333 375.294,292.333 374.780 C 292.333 374.698,292.510 374.421,292.726 374.164 C 292.943 373.907,293.411 372.884,293.768 371.890 L 294.417 370.083 294.417 365.667 C 294.417 361.232,294.115 358.964,293.474 358.567 C 293.397 358.519,293.333 358.327,293.333 358.139 C 293.333 357.952,293.108 357.465,292.833 357.057 C 292.558 356.650,292.333 356.273,292.333 356.219 C 292.333 355.712,290.279 354.010,288.833 353.319 C 286.531 352.218,287.289 352.280,275.292 352.209 L 264.333 352.145 264.333 374.239 M330.500 374.333 L 330.500 396.333 332.417 396.333 L 334.333 396.333 334.333 374.333 L 334.333 352.333 332.417 352.333 L 330.500 352.333 330.500 374.333 M368.333 354.000 L 368.333 355.667 375.333 355.667 L 382.333 355.667 382.333 376.000 L 382.333 396.333 384.250 396.333 L 386.167 396.333 386.167 376.000 L 386.167 355.667 393.083 355.667 L 400.000 355.667 400.000 354.000 L 400.000 352.333 384.167 352.333 L 368.333 352.333 368.333 354.000 M83.594 358.682 C 87.048 359.319,89.271 361.450,89.829 364.659 C 89.902 365.076,90.100 366.129,90.269 367.000 C 90.727 369.350,90.728 379.008,90.272 381.333 C 90.101 382.204,89.901 383.263,89.828 383.685 C 89.136 387.663,86.040 389.638,80.464 389.659 C 72.427 389.690,70.342 386.533,70.343 374.333 C 70.344 363.460,72.102 359.612,77.500 358.670 C 78.647 358.470,82.484 358.478,83.594 358.682 M283.500 359.313 C 285.779 360.103,286.781 361.810,286.955 365.200 C 287.151 369.025,286.098 371.545,283.849 372.632 L 282.917 373.083 277.458 373.133 L 272.000 373.184 272.000 365.993 L 272.000 358.801 277.208 358.870 C 282.081 358.933,282.486 358.962,283.500 359.313 " stroke="none" fill="#34343c" fill-rule="evenodd"></path><path id="path2" d="M215.503 220.747 L 210.437 225.815 240.427 255.785 C 266.988 282.329,272.723 287.954,274.333 289.043 C 274.563 289.198,275.275 289.701,275.917 290.161 C 276.558 290.621,277.145 290.998,277.219 290.999 C 277.294 290.999,277.596 291.183,277.890 291.408 C 278.539 291.902,282.087 293.768,283.150 294.172 C 283.572 294.333,284.367 294.652,284.917 294.882 C 286.308 295.463,288.741 296.211,290.957 296.740 C 292.756 297.169,293.400 297.260,297.667 297.687 C 303.547 298.274,312.139 296.981,317.417 294.714 C 320.960 293.192,322.006 292.667,324.000 291.408 C 326.128 290.065,326.959 289.500,327.153 289.266 C 327.275 289.120,327.442 289.000,327.524 289.000 C 327.864 289.000,330.943 286.241,333.838 283.342 C 335.537 281.641,336.215 280.925,335.344 281.750 C 334.474 282.575,333.722 283.290,333.673 283.339 C 333.624 283.388,333.364 283.584,333.096 283.775 L 332.609 284.121 332.263 283.476 C 331.966 282.924,331.115 281.428,330.174 279.807 C 330.032 279.563,329.668 278.926,329.365 278.390 C 329.062 277.855,328.521 276.929,328.164 276.333 C 327.807 275.737,327.421 275.063,327.307 274.833 C 327.193 274.604,326.973 274.229,326.819 274.000 C 326.665 273.771,326.304 273.147,326.016 272.614 L 325.493 271.646 326.538 270.531 C 328.080 268.887,327.012 269.863,323.567 273.250 C 319.886 276.867,317.855 278.525,315.810 279.579 C 310.997 282.062,307.369 283.150,302.802 283.481 C 297.855 283.839,291.370 282.480,287.250 280.222 C 286.975 280.071,286.450 279.784,286.083 279.583 C 284.617 278.779,283.164 277.744,281.473 276.300 C 280.754 275.686,266.901 261.924,250.690 245.717 C 234.479 229.510,221.070 216.121,220.893 215.964 C 220.580 215.688,220.403 215.846,215.503 220.747 M341.073 276.042 L 340.583 276.583 341.125 276.094 C 341.630 275.638,341.743 275.500,341.615 275.500 C 341.586 275.500,341.342 275.744,341.073 276.042 M338.167 278.917 C 337.762 279.329,337.468 279.667,337.514 279.667 C 337.560 279.667,337.928 279.329,338.333 278.917 C 338.738 278.504,339.032 278.167,338.986 278.167 C 338.940 278.167,338.572 278.504,338.167 278.917 " stroke="none" fill="#fcd33f" fill-rule="evenodd"></path><path id="path3" d="M242.750 23.667 C 243.108 24.033,243.438 24.333,243.484 24.333 C 243.530 24.333,243.275 24.033,242.917 23.667 C 242.559 23.300,242.228 23.000,242.182 23.000 C 242.137 23.000,242.392 23.300,242.750 23.667 M245.917 26.833 C 246.275 27.200,246.605 27.500,246.651 27.500 C 246.697 27.500,246.441 27.200,246.083 26.833 C 245.725 26.467,245.395 26.167,245.349 26.167 C 245.303 26.167,245.559 26.467,245.917 26.833 M249.103 30.055 C 249.459 30.452,249.900 30.873,250.083 30.991 C 250.267 31.108,250.007 30.783,249.506 30.269 C 248.425 29.159,248.188 29.034,249.103 30.055 M251.109 32.108 C 251.370 32.488,251.627 32.788,251.681 32.775 C 251.808 32.743,253.156 34.208,253.162 34.385 C 253.165 34.459,253.233 34.479,253.314 34.428 C 253.396 34.378,253.555 34.449,253.668 34.585 C 253.836 34.788,253.824 34.833,253.601 34.833 C 253.351 34.833,253.332 35.637,253.372 44.486 C 253.411 52.842,253.385 54.112,253.178 53.944 C 253.047 53.837,252.268 53.091,251.447 52.287 C 250.626 51.482,249.930 50.848,249.900 50.877 C 249.870 50.907,250.945 52.035,252.288 53.384 C 253.760 54.863,254.775 55.762,254.844 55.650 C 254.920 55.527,254.994 55.522,255.064 55.635 C 255.121 55.728,255.092 55.830,254.998 55.862 C 254.904 55.893,259.862 60.943,266.014 67.084 C 280.153 81.197,280.984 82.217,283.301 88.333 C 284.938 92.654,285.607 99.253,284.823 103.333 C 283.800 108.659,282.010 112.842,279.082 116.749 C 278.126 118.024,277.513 118.655,266.001 130.211 C 253.128 143.132,254.143 142.092,254.550 141.945 C 254.740 141.877,254.811 141.902,254.742 142.013 C 254.682 142.110,254.538 142.153,254.421 142.108 C 254.305 142.063,253.881 142.368,253.480 142.785 C 252.867 143.421,252.830 143.493,253.250 143.232 C 253.650 142.984,253.708 142.976,253.538 143.191 C 253.371 143.402,253.328 145.537,253.337 153.124 L 253.349 162.788 252.966 163.233 C 252.756 163.478,252.171 164.111,251.667 164.640 C 248.400 168.067,252.287 164.234,269.009 147.536 C 286.696 129.875,288.577 127.959,289.667 126.495 C 289.896 126.187,290.276 125.706,290.511 125.426 C 290.900 124.963,291.431 124.198,292.737 122.219 C 294.349 119.776,295.658 117.024,297.123 113.000 C 297.700 111.415,298.497 108.299,298.744 106.660 C 298.875 105.793,299.079 104.521,299.197 103.833 C 299.527 101.917,299.474 95.018,299.113 92.942 C 298.956 92.039,298.754 90.764,298.663 90.109 C 298.437 88.471,297.831 86.345,296.564 82.750 C 295.841 80.698,293.838 76.744,292.370 74.473 C 291.509 73.139,290.751 72.093,290.477 71.858 C 290.306 71.712,290.167 71.528,290.167 71.449 C 290.167 71.371,289.498 70.544,288.680 69.612 C 286.705 67.360,250.499 31.219,251.109 32.108 M242.667 43.750 C 242.978 44.071,243.270 44.333,243.315 44.333 C 243.361 44.333,243.144 44.071,242.833 43.750 C 242.522 43.429,242.230 43.167,242.185 43.167 C 242.139 43.167,242.356 43.429,242.667 43.750 M245.833 46.917 C 246.144 47.237,246.436 47.500,246.482 47.500 C 246.528 47.500,246.311 47.237,246.000 46.917 C 245.689 46.596,245.397 46.333,245.351 46.333 C 245.305 46.333,245.522 46.596,245.833 46.917 M248.989 50.040 C 249.303 50.382,249.597 50.625,249.641 50.581 C 249.686 50.536,249.691 50.481,249.652 50.458 C 249.613 50.435,249.320 50.192,248.999 49.917 L 248.417 49.417 248.989 50.040 M250.906 145.369 C 250.637 145.663,250.567 145.794,250.750 145.660 C 250.933 145.526,251.121 145.373,251.167 145.319 C 251.213 145.265,251.400 145.136,251.583 145.032 C 251.834 144.891,251.852 144.842,251.656 144.838 C 251.513 144.836,251.175 145.074,250.906 145.369 M247.627 148.588 C 247.285 148.906,247.064 149.167,247.136 149.167 C 247.209 149.167,247.522 148.904,247.833 148.583 C 248.559 147.835,248.434 147.837,247.627 148.588 M244.573 151.708 L 244.083 152.250 244.625 151.760 C 245.130 151.304,245.243 151.167,245.115 151.167 C 245.086 151.167,244.842 151.410,244.573 151.708 M249.103 167.266 C 248.265 168.217,248.393 168.208,249.333 167.250 C 249.738 166.837,249.998 166.507,249.910 166.516 C 249.822 166.524,249.459 166.862,249.103 167.266 M245.824 170.625 L 245.250 171.250 245.875 170.676 C 246.457 170.141,246.577 170.000,246.449 170.000 C 246.422 170.000,246.140 170.281,245.824 170.625 M242.658 173.792 L 242.083 174.417 242.708 173.842 C 243.290 173.308,243.410 173.167,243.283 173.167 C 243.255 173.167,242.974 173.448,242.658 173.792 M239.491 176.958 L 238.917 177.583 239.542 177.009 C 239.885 176.693,240.167 176.412,240.167 176.384 C 240.167 176.257,240.026 176.377,239.491 176.958 M236.324 180.125 L 235.750 180.750 236.375 180.176 C 236.957 179.641,237.077 179.500,236.949 179.500 C 236.922 179.500,236.640 179.781,236.324 180.125 " stroke="none" fill="#84ccbb" fill-rule="evenodd"></path><path id="path4" d="M194.631 0.258 C 193.833 0.383,192.533 0.638,191.743 0.826 C 190.953 1.013,190.182 1.166,190.029 1.166 C 189.665 1.165,186.762 2.068,185.152 2.683 C 184.457 2.949,183.835 3.167,183.769 3.167 C 183.286 3.167,176.777 6.699,176.203 7.273 C 176.078 7.398,175.917 7.500,175.844 7.500 C 175.630 7.500,172.791 9.664,171.580 10.750 C 170.222 11.968,13.335 168.865,12.470 169.871 C 12.133 170.263,11.658 170.808,11.415 171.083 C 9.986 172.701,7.278 176.939,6.093 179.415 C 4.853 182.003,4.333 183.175,4.333 183.382 C 4.332 183.493,4.104 184.169,3.826 184.884 C 3.548 185.599,3.257 186.499,3.179 186.884 C 3.102 187.269,2.851 188.333,2.622 189.250 C 0.856 196.311,1.400 207.007,3.848 213.333 C 4.114 214.021,4.332 214.646,4.333 214.722 C 4.336 215.306,7.255 221.219,8.185 222.526 C 8.358 222.769,8.500 223.014,8.500 223.070 C 8.500 223.160,9.533 224.658,10.233 225.583 C 10.371 225.767,11.104 226.667,11.862 227.583 C 13.539 229.614,69.475 285.576,71.583 287.333 C 72.408 288.021,73.108 288.640,73.139 288.708 C 73.169 288.777,73.292 288.833,73.410 288.833 C 73.529 288.833,73.727 288.955,73.850 289.103 C 74.086 289.388,76.412 291.000,76.587 291.000 C 76.643 291.000,76.928 291.179,77.219 291.398 C 79.582 293.173,85.886 295.697,90.501 296.718 C 95.941 297.920,99.897 298.070,106.791 297.334 C 110.713 296.915,115.730 295.320,120.321 293.032 C 122.603 291.895,123.228 291.530,125.202 290.181 C 126.999 288.954,127.383 288.661,129.151 287.167 C 130.551 285.983,247.315 169.302,249.208 167.195 C 249.551 166.813,249.908 166.500,250.000 166.500 C 250.091 166.500,250.167 166.438,250.167 166.362 C 250.167 166.286,250.710 165.648,251.375 164.945 C 252.040 164.243,252.756 163.469,252.966 163.227 L 253.349 162.788 253.337 153.124 C 253.328 145.534,253.371 143.404,253.538 143.199 C 253.697 143.003,253.615 143.017,253.205 143.257 C 252.905 143.432,252.695 143.667,252.738 143.779 C 252.785 143.903,252.721 143.947,252.576 143.891 C 252.443 143.840,252.290 143.920,252.232 144.071 C 252.174 144.221,251.930 144.451,251.689 144.582 C 251.308 144.788,251.294 144.822,251.583 144.832 C 251.916 144.843,251.916 144.844,251.585 145.036 C 251.403 145.141,251.110 145.361,250.935 145.525 C 250.760 145.688,250.553 145.782,250.475 145.734 C 250.397 145.686,250.333 145.710,250.333 145.787 C 250.333 145.985,248.505 147.833,248.309 147.833 C 248.220 147.833,248.186 147.897,248.234 147.974 C 248.341 148.147,247.439 149.039,247.280 148.919 C 247.218 148.872,247.195 148.874,247.230 148.925 C 247.307 149.036,245.306 150.999,245.115 151.000 C 245.041 151.000,245.020 151.064,245.068 151.141 C 245.116 151.219,244.932 151.495,244.661 151.756 C 244.389 152.016,244.167 152.190,244.167 152.141 C 244.167 152.093,243.660 152.548,243.040 153.152 C 242.420 153.756,241.924 154.287,241.937 154.333 C 241.951 154.379,241.745 154.628,241.481 154.885 C 241.216 155.143,241.000 155.309,241.000 155.255 C 241.000 155.200,240.756 155.437,240.458 155.782 C 240.160 156.127,239.695 156.599,239.423 156.830 C 239.152 157.061,238.814 157.390,238.673 157.562 C 238.532 157.734,238.324 157.959,238.211 158.062 C 238.098 158.165,237.423 158.839,236.711 159.559 C 235.033 161.256,235.086 161.203,233.559 162.699 C 232.839 163.404,232.126 164.116,231.974 164.282 C 231.823 164.448,228.973 167.299,225.641 170.617 C 222.309 173.936,219.460 176.786,219.308 176.951 C 218.565 177.760,119.861 276.284,119.577 276.500 C 119.396 276.637,118.744 277.144,118.127 277.625 C 117.511 278.106,116.963 278.500,116.909 278.500 C 116.854 278.500,116.491 278.719,116.102 278.987 C 108.258 284.384,95.336 284.927,86.583 280.228 C 86.308 280.080,85.783 279.806,85.417 279.619 C 85.050 279.432,84.600 279.151,84.417 278.994 C 84.233 278.838,83.883 278.606,83.638 278.480 C 83.252 278.280,82.203 277.501,80.837 276.401 C 78.769 274.734,22.593 218.185,21.575 216.745 C 19.489 213.794,17.419 209.596,16.933 207.333 C 16.884 207.104,16.636 206.017,16.382 204.917 C 15.358 200.474,15.852 193.503,17.492 189.243 C 17.771 188.518,18.000 187.869,18.000 187.801 C 18.000 187.660,19.075 185.462,19.695 184.333 C 20.321 183.193,21.612 181.253,21.906 181.009 C 22.049 180.890,22.167 180.736,22.167 180.667 C 22.167 180.148,180.229 22.073,182.377 20.443 C 187.795 16.331,193.717 14.313,200.500 14.267 C 204.206 14.242,208.718 15.007,211.250 16.089 C 211.525 16.207,212.200 16.485,212.750 16.707 C 213.300 16.930,214.313 17.433,215.000 17.826 C 215.688 18.220,216.490 18.678,216.782 18.846 C 218.744 19.968,221.628 22.687,235.147 36.156 C 242.974 43.953,249.443 50.333,249.522 50.333 C 249.602 50.333,249.667 50.446,249.667 50.583 C 249.667 50.721,249.734 50.833,249.816 50.833 C 249.898 50.833,250.634 51.490,251.452 52.292 C 252.270 53.094,253.047 53.837,253.178 53.944 C 253.385 54.112,253.411 52.842,253.372 44.486 C 253.332 35.637,253.351 34.833,253.601 34.833 C 253.824 34.833,253.836 34.788,253.668 34.585 C 253.555 34.449,253.396 34.378,253.314 34.428 C 253.233 34.479,253.164 34.459,253.161 34.385 C 253.153 34.198,251.667 32.570,251.667 32.748 C 251.667 32.827,251.414 32.536,251.105 32.102 C 250.796 31.667,250.372 31.192,250.164 31.046 C 249.955 30.900,249.540 30.511,249.242 30.182 C 245.214 25.742,228.746 9.654,227.262 8.709 C 226.902 8.479,226.415 8.113,226.180 7.896 C 225.945 7.678,225.691 7.500,225.616 7.500 C 225.540 7.500,225.239 7.320,224.947 7.100 C 224.655 6.880,224.154 6.552,223.833 6.370 C 223.512 6.189,222.762 5.761,222.167 5.420 C 220.774 4.621,217.942 3.274,217.083 3.002 C 216.717 2.885,216.337 2.727,216.240 2.651 C 216.144 2.575,215.656 2.403,215.157 2.269 C 214.658 2.135,213.838 1.881,213.333 1.704 C 212.829 1.528,212.117 1.330,211.750 1.264 C 211.383 1.199,210.483 1.003,209.750 0.829 C 206.171 -0.022,198.330 -0.318,194.631 0.258 M197.000 32.551 C 195.255 32.935,193.680 33.591,192.417 34.459 C 190.418 35.831,165.228 61.404,164.532 62.766 C 158.280 75.007,171.984 87.566,183.410 80.065 C 185.234 78.868,211.000 53.028,211.000 52.397 C 211.000 52.313,211.181 51.977,211.403 51.651 C 211.822 51.035,212.474 49.229,212.834 47.687 C 213.367 45.408,212.631 40.837,211.436 39.000 C 211.227 38.679,210.862 38.109,210.625 37.732 C 208.033 33.620,202.205 31.404,197.000 32.551 " stroke="none" fill="#a8d5d6" fill-rule="evenodd"></path></g></svg>